<svg width="1600" height="800" viewBox="0 0 1600 800" fill="none" xmlns="http://www.w3.org/2000/svg">
<g clip-path="url(#clip0_42_72)">
<path d="M675 242C675 213.997 675 199.996 680.45 189.3C685.243 179.892 692.892 172.243 702.3 167.45C712.996 162 726.997 162 755 162H845C873.003 162 887.004 162 897.7 167.45C907.108 172.243 914.757 179.892 919.55 189.3C925 199.996 925 213.997 925 242V332C925 360.003 925 374.004 919.55 384.7C914.757 394.108 907.108 401.757 897.7 406.55C887.004 412 873.003 412 845 412H755C726.997 412 712.996 412 702.3 406.55C692.892 401.757 685.243 394.108 680.45 384.7C675 374.004 675 360.003 675 332V242Z" fill="url(#paint0_linear_42_72)" fill-opacity="0.8" stroke="url(#paint1_linear_42_72)"/>
<g clip-path="url(#clip1_42_72)">
<path d="M799.5 326.407C856.817 326.407 903.283 308.764 903.283 287C903.283 265.236 856.817 247.593 799.5 247.593C742.182 247.593 695.717 265.236 695.717 287C695.717 308.764 742.182 326.407 799.5 326.407Z" fill="#2C5E8C"/>
<path d="M765.183 306.703C793.841 356.067 832.438 387.263 851.391 376.381C870.344 365.499 862.476 316.66 833.817 267.297C805.158 217.933 766.561 186.737 747.609 197.619C728.656 208.501 736.524 257.34 765.183 306.703Z" fill="#2C5E8C"/>
<path d="M765.183 267.297C736.524 316.66 728.656 365.499 747.609 376.381C766.562 387.263 805.158 356.067 833.817 306.703C862.476 257.34 870.344 208.501 851.391 197.619C832.438 186.737 793.842 217.933 765.183 267.297Z" fill="#2C5E8C"/>
<ellipse cx="800.345" cy="287" rx="41.7957" ry="41.2632" fill="#F72C5B"/>
<path d="M799.5 326.407C856.817 326.407 903.282 308.764 903.282 287C903.282 265.236 856.817 247.593 799.5 247.593C742.182 247.593 695.717 265.236 695.717 287C695.717 308.764 742.182 326.407 799.5 326.407Z" stroke="black" stroke-width="8"/>
<path d="M765.183 306.703C793.841 356.067 832.438 387.263 851.391 376.381C870.344 365.499 862.476 316.66 833.817 267.297C805.158 217.933 766.561 186.737 747.609 197.619C728.656 208.501 736.524 257.34 765.183 306.703Z" stroke="black" stroke-width="8"/>
<path d="M765.183 267.297C736.524 316.66 728.656 365.499 747.609 376.381C766.562 387.263 805.158 356.067 833.817 306.703C862.476 257.34 870.344 208.501 851.391 197.619C832.438 186.737 793.842 217.933 765.183 267.297Z" stroke="black" stroke-width="8"/>
<path d="M793.611 266.791C800.652 266.715 807.635 270.229 811.053 276.808C813.973 282.424 813.874 287.754 810.738 293.924C809.206 296.941 809.174 297.138 809.964 298.708C810.652 300.079 812.3 301.07 813.886 301.07C815.345 301.07 817.581 299.293 817.908 297.874C818.229 296.498 817.288 294.485 815.958 293.699C815.531 293.451 815.11 293.193 814.696 292.926C814.282 292.623 816.045 291.774 817.076 291.774C819.283 291.774 821.082 293.369 821.493 295.685C821.67 296.695 821.923 296.965 822.906 297.207C825.666 297.88 827.073 301.607 825.332 303.623C824.625 304.442 824.593 304.445 824.352 303.75C823.494 301.322 822.213 300.355 819.845 300.355C818.82 300.355 818.008 300.743 816.318 302.04C813.087 304.527 810.324 305.991 806.98 306.989C802.881 308.153 798.14 308.438 793.855 307.462C786.91 306.155 780.261 301.064 776.984 294.554C772.892 286.423 774.103 277.988 780.2 272.157C781.952 270.475 784.039 269.136 786.34 268.215C788.641 267.294 791.112 266.81 793.611 266.791Z" fill="white"/>
</g>
</g>
<path d="M551.195 481.1C555.695 481.1 559.595 481.88 562.895 483.44C566.195 484.94 568.745 487.16 570.545 490.1C572.405 493.04 573.335 496.49 573.335 500.45C573.335 503.21 572.705 505.73 571.445 508.01C570.185 510.29 568.505 512.12 566.405 513.5C564.365 514.82 562.175 515.6 559.835 515.84L557.405 515.03C562.445 515.03 566.075 515.87 568.295 517.55C570.515 519.23 571.835 522.17 572.255 526.37L573.965 545H564.335L562.805 527.54C562.565 524.78 561.455 522.83 559.475 521.69C557.555 520.55 554.405 519.98 550.025 519.98H535.445V545H525.905V481.1H551.195ZM550.655 511.16C554.795 511.16 557.945 510.26 560.105 508.46C562.325 506.66 563.435 504.05 563.435 500.63C563.435 497.15 562.325 494.51 560.105 492.71C557.945 490.85 554.795 489.92 550.655 489.92H535.445V511.16H550.655ZM577.391 521.15C577.391 516.11 578.321 511.73 580.181 508.01C582.041 504.23 584.681 501.32 588.101 499.28C591.521 497.24 595.481 496.22 599.981 496.22C603.881 496.22 607.391 497.09 610.511 498.83C613.691 500.57 616.241 503.27 618.161 506.93C620.141 510.59 621.221 515.15 621.401 520.61L621.491 523.85H587.201C587.561 528.35 588.851 531.83 591.071 534.29C593.291 536.75 596.261 537.98 599.981 537.98C602.381 537.98 604.571 537.35 606.551 536.09C608.531 534.77 610.001 532.97 610.961 530.69L620.771 531.41C619.391 535.85 616.781 539.42 612.941 542.12C609.161 544.76 604.841 546.08 599.981 546.08C595.481 546.08 591.521 545.06 588.101 543.02C584.681 540.98 582.041 538.1 580.181 534.38C578.321 530.6 577.391 526.19 577.391 521.15ZM611.591 516.65C610.991 512.39 609.641 509.27 607.541 507.29C605.441 505.31 602.921 504.32 599.981 504.32C596.501 504.32 593.681 505.4 591.521 507.56C589.361 509.72 587.981 512.75 587.381 516.65H611.591ZM626.435 511.52C627.395 506.78 629.645 503.06 633.185 500.36C636.725 497.6 641.225 496.22 646.685 496.22C653.165 496.22 658.115 497.96 661.535 501.44C664.955 504.86 666.665 509.84 666.665 516.38V534.38C666.665 535.46 666.905 536.24 667.385 536.72C667.865 537.2 668.585 537.44 669.545 537.44H671.525V545H668.375H668.015C666.335 545 664.775 544.82 663.335 544.46C661.895 544.1 660.665 543.38 659.645 542.3C658.625 541.22 658.085 539.69 658.025 537.71C656.885 540.11 654.995 542.12 652.355 543.74C649.715 545.3 646.535 546.08 642.815 546.08C637.835 546.08 633.725 544.85 630.485 542.39C627.245 539.93 625.625 536.63 625.625 532.49C625.625 529.43 626.315 526.97 627.695 525.11C629.135 523.25 631.115 521.81 633.635 520.79C636.215 519.77 639.545 518.87 643.625 518.09L657.305 515.39C657.245 511.55 656.345 508.7 654.605 506.84C652.865 504.98 650.225 504.05 646.685 504.05C643.925 504.05 641.645 504.74 639.845 506.12C638.045 507.5 636.785 509.51 636.065 512.15L626.435 511.52ZM635.345 532.31C635.345 534.17 636.125 535.7 637.685 536.9C639.305 538.1 641.615 538.7 644.615 538.7C647.075 538.7 649.265 538.13 651.185 536.99C653.165 535.79 654.695 534.02 655.775 531.68C656.915 529.34 657.485 526.49 657.485 523.13V522.68L647.225 524.48L645.515 524.75C643.055 525.23 641.165 525.68 639.845 526.1C638.525 526.46 637.445 527.15 636.605 528.17C635.765 529.19 635.345 530.57 635.345 532.31ZM706.904 513.95C706.484 511.01 705.224 508.7 703.124 507.02C701.024 505.28 698.594 504.41 695.834 504.41C691.694 504.41 688.514 505.88 686.294 508.82C684.074 511.76 682.964 515.87 682.964 521.15C682.964 526.43 684.074 530.54 686.294 533.48C688.514 536.42 691.694 537.89 695.834 537.89C698.774 537.89 701.264 536.99 703.304 535.19C705.404 533.33 706.724 530.78 707.264 527.54L717.074 528.08C716.594 531.74 715.334 534.95 713.294 537.71C711.314 540.41 708.794 542.48 705.734 543.92C702.734 545.36 699.434 546.08 695.834 546.08C691.274 546.08 687.284 545.06 683.864 543.02C680.504 540.98 677.894 538.1 676.034 534.38C674.174 530.6 673.244 526.19 673.244 521.15C673.244 516.11 674.174 511.73 676.034 508.01C677.894 504.23 680.504 501.32 683.864 499.28C687.284 497.24 691.274 496.22 695.834 496.22C699.314 496.22 702.554 496.94 705.554 498.38C708.614 499.76 711.104 501.74 713.024 504.32C715.004 506.9 716.204 509.93 716.624 513.41L706.904 513.95ZM734.544 486.5V531.41C734.544 533.33 734.994 534.8 735.894 535.82C736.854 536.78 738.264 537.26 740.124 537.26H747.144V545H739.314C734.694 545 731.184 543.83 728.784 541.49C726.384 539.15 725.184 535.79 725.184 531.41V486.5H734.544ZM747.234 497.3V505.04H717.984V497.3H747.234ZM812.59 481.1V489.92H780.73V508.64H811.51V517.28H780.73V536.18H813.31V545H771.19V481.1H812.59ZM873.734 524.39C872.474 531.11 869.564 536.48 865.004 540.5C860.504 544.46 854.624 546.44 847.364 546.44C841.364 546.44 836.144 544.97 831.704 542.03C827.264 539.09 823.844 535.1 821.444 530.06C819.104 525.02 817.934 519.38 817.934 513.14C817.934 506.9 819.104 501.23 821.444 496.13C823.784 491.03 827.174 487.01 831.614 484.07C836.114 481.13 841.364 479.66 847.364 479.66C854.144 479.66 859.784 481.55 864.284 485.33C868.844 489.05 871.844 494.06 873.284 500.36L863.384 500.99C862.364 497.15 860.474 494.12 857.714 491.9C854.954 489.62 851.504 488.48 847.364 488.48C842.924 488.48 839.234 489.59 836.294 491.81C833.414 493.97 831.284 496.91 829.904 500.63C828.524 504.35 827.834 508.52 827.834 513.14C827.834 517.76 828.524 521.9 829.904 525.56C831.284 529.22 833.444 532.16 836.384 534.38C839.324 536.54 842.984 537.62 847.364 537.62C851.744 537.62 855.314 536.39 858.074 533.93C860.894 531.41 862.754 528.05 863.654 523.85L873.734 524.39ZM889.573 481.1V507.92L888.223 507.29C889.183 503.57 891.043 500.81 893.803 499.01C896.563 497.15 899.833 496.22 903.613 496.22C908.773 496.22 912.733 497.9 915.493 501.26C918.253 504.62 919.633 508.97 919.633 514.31V545H910.273V517.55C910.273 514.67 909.973 512.3 909.373 510.44C908.773 508.52 907.783 507.08 906.403 506.12C905.083 505.1 903.313 504.59 901.093 504.59C897.493 504.59 894.673 505.7 892.633 507.92C890.593 510.14 889.573 513.35 889.573 517.55V545H880.213V481.1H889.573ZM926.722 511.52C927.682 506.78 929.932 503.06 933.472 500.36C937.012 497.6 941.512 496.22 946.972 496.22C953.452 496.22 958.402 497.96 961.822 501.44C965.242 504.86 966.952 509.84 966.952 516.38V534.38C966.952 535.46 967.192 536.24 967.672 536.72C968.152 537.2 968.872 537.44 969.832 537.44H971.812V545H968.662H968.302C966.622 545 965.062 544.82 963.622 544.46C962.182 544.1 960.952 543.38 959.932 542.3C958.912 541.22 958.372 539.69 958.312 537.71C957.172 540.11 955.282 542.12 952.642 543.74C950.002 545.3 946.822 546.08 943.102 546.08C938.122 546.08 934.012 544.85 930.772 542.39C927.532 539.93 925.912 536.63 925.912 532.49C925.912 529.43 926.602 526.97 927.982 525.11C929.422 523.25 931.402 521.81 933.922 520.79C936.502 519.77 939.832 518.87 943.912 518.09L957.592 515.39C957.532 511.55 956.632 508.7 954.892 506.84C953.152 504.98 950.512 504.05 946.972 504.05C944.212 504.05 941.932 504.74 940.132 506.12C938.332 507.5 937.072 509.51 936.352 512.15L926.722 511.52ZM935.632 532.31C935.632 534.17 936.412 535.7 937.972 536.9C939.592 538.1 941.902 538.7 944.902 538.7C947.362 538.7 949.552 538.13 951.472 536.99C953.452 535.79 954.982 534.02 956.062 531.68C957.202 529.34 957.772 526.49 957.772 523.13V522.68L947.512 524.48L945.802 524.75C943.342 525.23 941.452 525.68 940.132 526.1C938.812 526.46 937.732 527.15 936.892 528.17C936.052 529.19 935.632 530.57 935.632 532.31ZM985.407 497.3L985.767 510.17L985.047 509.54C985.587 505.28 986.817 502.19 988.737 500.27C990.657 498.29 993.417 497.3 997.017 497.3H1001.61V505.04H996.927C994.527 505.04 992.517 505.49 990.897 506.39C989.277 507.29 988.077 508.64 987.297 510.44C986.577 512.18 986.217 514.4 986.217 517.1V545H976.857V497.3H985.407ZM1021.38 486.5V531.41C1021.38 533.33 1021.83 534.8 1022.73 535.82C1023.69 536.78 1025.1 537.26 1026.96 537.26H1033.98V545H1026.15C1021.53 545 1018.02 543.83 1015.62 541.49C1013.22 539.15 1012.02 535.79 1012.02 531.41V486.5H1021.38ZM1034.07 497.3V505.04H1004.82V497.3H1034.07ZM1065.44 512.24C1064.96 509.78 1063.67 507.83 1061.57 506.39C1059.53 504.89 1057.22 504.14 1054.64 504.14C1052.12 504.14 1050.02 504.77 1048.34 506.03C1046.66 507.23 1045.85 508.85 1045.91 510.89C1045.91 512.81 1046.9 514.31 1048.88 515.39C1050.86 516.47 1053.38 517.31 1056.44 517.91C1060.76 518.69 1064.3 519.62 1067.06 520.7C1069.82 521.78 1071.98 523.28 1073.54 525.2C1075.1 527.12 1075.88 529.58 1075.88 532.58C1075.88 535.58 1074.95 538.1 1073.09 540.14C1071.29 542.12 1068.92 543.62 1065.98 544.64C1063.1 545.6 1059.95 546.08 1056.53 546.08C1052.51 546.08 1048.91 545.42 1045.73 544.1C1042.55 542.78 1040.03 540.92 1038.17 538.52C1036.31 536.06 1035.26 533.21 1035.02 529.97L1044.65 529.34C1045.01 531.2 1045.67 532.79 1046.63 534.11C1047.65 535.37 1048.97 536.36 1050.59 537.08C1052.27 537.74 1054.22 538.07 1056.44 538.07C1058.96 538.07 1061.21 537.62 1063.19 536.72C1065.17 535.76 1066.16 534.26 1066.16 532.22C1066.1 530.78 1065.65 529.64 1064.81 528.8C1064.03 527.96 1063.04 527.33 1061.84 526.91C1060.64 526.49 1058.99 526.07 1056.89 525.65C1056.41 525.59 1055.72 525.44 1054.82 525.2C1050.8 524.36 1047.5 523.46 1044.92 522.5C1042.34 521.48 1040.24 520.07 1038.62 518.27C1037 516.41 1036.19 514.07 1036.19 511.25C1036.19 508.19 1036.97 505.55 1038.53 503.33C1040.09 501.05 1042.31 499.31 1045.19 498.11C1048.13 496.85 1051.55 496.22 1055.45 496.22C1060.55 496.22 1064.9 497.63 1068.5 500.45C1072.1 503.21 1074.29 506.96 1075.07 511.7L1065.44 512.24Z" fill="white"/>
<path d="M693.352 583.7V586.16H682.522V593.12H692.992V595.52H682.522V602.54H693.592V605H680.002V583.7H693.352ZM707.979 594.41C707.819 593.39 707.359 592.58 706.599 591.98C705.839 591.38 704.959 591.08 703.959 591.08C702.479 591.08 701.329 591.61 700.509 592.67C699.689 593.71 699.279 595.17 699.279 597.05C699.279 598.93 699.689 600.4 700.509 601.46C701.329 602.5 702.479 603.02 703.959 603.02C704.999 603.02 705.899 602.7 706.659 602.06C707.439 601.4 707.919 600.51 708.099 599.39L710.709 599.54C710.549 600.72 710.149 601.75 709.509 602.63C708.869 603.51 708.059 604.19 707.079 604.67C706.119 605.13 705.079 605.36 703.959 605.36C702.499 605.36 701.219 605.02 700.119 604.34C699.039 603.66 698.199 602.7 697.599 601.46C696.999 600.2 696.699 598.73 696.699 597.05C696.699 595.37 696.999 593.91 697.599 592.67C698.199 591.41 699.039 590.44 700.119 589.76C701.219 589.08 702.499 588.74 703.959 588.74C705.039 588.74 706.059 588.97 707.019 589.43C707.979 589.87 708.769 590.51 709.389 591.35C710.029 592.19 710.419 593.16 710.559 594.26L707.979 594.41ZM716.705 583.7V592.64L716.345 592.22C716.665 591.08 717.295 590.22 718.235 589.64C719.175 589.04 720.255 588.74 721.475 588.74C723.215 588.74 724.545 589.3 725.465 590.42C726.385 591.54 726.845 592.99 726.845 594.77V605H724.385V595.67C724.385 594.67 724.265 593.83 724.025 593.15C723.785 592.47 723.415 591.96 722.915 591.62C722.415 591.26 721.765 591.08 720.965 591.08C719.645 591.08 718.605 591.48 717.845 592.28C717.085 593.08 716.705 594.21 716.705 595.67V605H714.245V583.7H716.705ZM730.895 593.78C731.215 592.24 731.945 591.02 733.085 590.12C734.245 589.2 735.675 588.74 737.375 588.74C739.435 588.74 741.015 589.32 742.115 590.48C743.215 591.62 743.765 593.26 743.765 595.4V601.79C743.765 602.13 743.845 602.39 744.005 602.57C744.165 602.73 744.415 602.81 744.755 602.81H745.385V605H744.335H744.185C743.625 604.98 743.135 604.9 742.715 604.76C742.295 604.6 741.955 604.34 741.695 603.98C741.435 603.6 741.315 603.11 741.335 602.51C740.955 603.31 740.325 603.99 739.445 604.55C738.565 605.09 737.525 605.36 736.325 605.36C734.685 605.36 733.325 604.95 732.245 604.13C731.165 603.31 730.625 602.22 730.625 600.86C730.625 599.82 730.865 598.99 731.345 598.37C731.825 597.75 732.485 597.28 733.325 596.96C734.165 596.62 735.255 596.32 736.595 596.06L741.275 595.16C741.275 593.78 740.945 592.76 740.285 592.1C739.645 591.42 738.675 591.08 737.375 591.08C736.375 591.08 735.535 591.33 734.855 591.83C734.195 592.33 733.745 593.05 733.505 593.99L730.895 593.78ZM733.205 600.86C733.205 601.54 733.495 602.1 734.075 602.54C734.675 602.98 735.535 603.19 736.655 603.17C737.555 603.17 738.355 602.96 739.055 602.54C739.775 602.12 740.335 601.5 740.735 600.68C741.155 599.84 741.365 598.82 741.365 597.62L741.335 597.35L737.555 598.01L736.955 598.1C736.075 598.26 735.385 598.42 734.885 598.58C734.385 598.72 733.975 598.97 733.655 599.33C733.355 599.69 733.205 600.2 733.205 600.86ZM750.917 589.1L751.037 593.3L750.797 593.06C750.997 591.68 751.417 590.68 752.057 590.06C752.697 589.42 753.617 589.1 754.817 589.1H756.347V591.29H754.817C754.017 591.29 753.347 591.45 752.807 591.77C752.267 592.09 751.867 592.57 751.607 593.21C751.347 593.83 751.217 594.6 751.217 595.52V605H748.757V589.1H750.917ZM763.911 585.5V600.8C763.911 601.48 764.071 601.99 764.391 602.33C764.731 602.65 765.211 602.81 765.831 602.81H768.111V605H765.831C764.431 605 763.351 604.64 762.591 603.92C761.831 603.18 761.451 602.14 761.451 600.8V585.5H763.911ZM768.141 589.1V591.29H759.111V589.1H768.141ZM780.258 593.99C780.078 593.11 779.608 592.41 778.848 591.89C778.088 591.35 777.238 591.08 776.298 591.08C775.378 591.08 774.608 591.31 773.988 591.77C773.368 592.21 773.058 592.8 773.058 593.54C773.078 594.26 773.438 594.82 774.138 595.22C774.858 595.6 775.778 595.91 776.898 596.15C778.258 596.41 779.378 596.72 780.258 597.08C781.158 597.42 781.858 597.9 782.358 598.52C782.878 599.14 783.138 599.95 783.138 600.95C783.138 601.93 782.838 602.75 782.238 603.41C781.658 604.07 780.898 604.56 779.958 604.88C779.018 605.2 778.018 605.36 776.958 605.36C775.698 605.36 774.558 605.14 773.538 604.7C772.538 604.26 771.728 603.64 771.108 602.84C770.508 602.02 770.168 601.08 770.088 600.02L772.668 599.84C772.788 600.48 773.028 601.04 773.388 601.52C773.748 602 774.228 602.37 774.828 602.63C775.448 602.89 776.158 603.02 776.958 603.02C777.918 603.02 778.758 602.85 779.478 602.51C780.198 602.15 780.558 601.59 780.558 600.83C780.558 600.29 780.398 599.87 780.078 599.57C779.778 599.27 779.408 599.05 778.968 598.91C778.548 598.75 777.958 598.59 777.198 598.43C777.018 598.39 776.768 598.33 776.448 598.25C775.208 597.97 774.178 597.67 773.358 597.35C772.538 597.03 771.858 596.58 771.318 596C770.778 595.4 770.508 594.63 770.508 593.69C770.488 592.69 770.728 591.82 771.228 591.08C771.748 590.34 772.468 589.77 773.388 589.37C774.308 588.95 775.368 588.74 776.568 588.74C778.168 588.74 779.548 589.21 780.708 590.15C781.868 591.07 782.578 592.29 782.838 593.81L780.258 593.99ZM796.167 588.05C796.167 586.69 796.517 585.63 797.217 584.87C797.937 584.09 799.007 583.7 800.427 583.7H802.827V585.89H800.397C799.877 585.89 799.447 586.08 799.107 586.46C798.787 586.84 798.627 587.36 798.627 588.02V605H796.167V588.05ZM794.007 589.1H802.647V591.29H794.007V589.1ZM811.859 605.36C810.399 605.36 809.119 605.02 808.019 604.34C806.939 603.66 806.099 602.7 805.499 601.46C804.899 600.2 804.599 598.73 804.599 597.05C804.599 595.37 804.899 593.91 805.499 592.67C806.099 591.41 806.939 590.44 808.019 589.76C809.119 589.08 810.399 588.74 811.859 588.74C813.319 588.74 814.589 589.08 815.669 589.76C816.769 590.44 817.619 591.41 818.219 592.67C818.819 593.91 819.119 595.37 819.119 597.05C819.119 598.73 818.819 600.2 818.219 601.46C817.619 602.7 816.769 603.66 815.669 604.34C814.589 605.02 813.319 605.36 811.859 605.36ZM811.859 603.02C813.339 603.02 814.489 602.5 815.309 601.46C816.129 600.4 816.539 598.93 816.539 597.05C816.539 595.17 816.129 593.71 815.309 592.67C814.489 591.61 813.339 591.08 811.859 591.08C810.379 591.08 809.229 591.61 808.409 592.67C807.589 593.71 807.179 595.17 807.179 597.05C807.179 598.93 807.589 600.4 808.409 601.46C809.229 602.5 810.379 603.02 811.859 603.02ZM825.097 589.1L825.217 593.3L824.977 593.06C825.177 591.68 825.597 590.68 826.237 590.06C826.877 589.42 827.797 589.1 828.997 589.1H830.527V591.29H828.997C828.197 591.29 827.527 591.45 826.987 591.77C826.447 592.09 826.047 592.57 825.787 593.21C825.527 593.83 825.397 594.6 825.397 595.52V605H822.937V589.1H825.097ZM850.23 583.7C851.71 583.7 852.99 583.96 854.07 584.48C855.17 585 856.01 585.75 856.59 586.73C857.19 587.69 857.49 588.82 857.49 590.12C857.49 591.06 857.27 591.91 856.83 592.67C856.41 593.43 855.85 594.04 855.15 594.5C854.45 594.94 853.73 595.18 852.99 595.22L852.09 594.95C853.77 594.95 854.99 595.24 855.75 595.82C856.51 596.38 856.96 597.35 857.1 598.73L857.67 605H855.12L854.61 598.97C854.53 598.03 854.13 597.37 853.41 596.99C852.71 596.59 851.57 596.39 849.99 596.39H844.71V605H842.19V583.7H850.23ZM850.23 593.93C851.71 593.93 852.85 593.6 853.65 592.94C854.45 592.28 854.85 591.32 854.85 590.06C854.85 588.82 854.45 587.86 853.65 587.18C852.85 586.5 851.71 586.16 850.23 586.16H844.71V593.93H850.23ZM860.498 597.05C860.498 595.37 860.798 593.91 861.398 592.67C861.998 591.41 862.838 590.44 863.918 589.76C865.018 589.08 866.298 588.74 867.758 588.74C868.998 588.74 870.118 589.02 871.118 589.58C872.138 590.14 872.958 591.02 873.578 592.22C874.218 593.42 874.578 594.92 874.658 596.72L874.688 597.83H863.108C863.228 599.47 863.688 600.75 864.488 601.67C865.308 602.57 866.398 603.02 867.758 603.02C868.638 603.02 869.438 602.78 870.158 602.3C870.878 601.82 871.418 601.16 871.778 600.32L874.418 600.5C873.958 601.98 873.118 603.16 871.898 604.04C870.678 604.92 869.298 605.36 867.758 605.36C866.298 605.36 865.018 605.02 863.918 604.34C862.838 603.66 861.998 602.7 861.398 601.46C860.798 600.2 860.498 598.73 860.498 597.05ZM871.988 595.64C871.768 594.06 871.278 592.91 870.518 592.19C869.758 591.45 868.838 591.08 867.758 591.08C866.478 591.08 865.448 591.48 864.668 592.28C863.888 593.06 863.388 594.18 863.168 595.64H871.988ZM877.907 593.78C878.227 592.24 878.957 591.02 880.097 590.12C881.257 589.2 882.687 588.74 884.387 588.74C886.447 588.74 888.027 589.32 889.127 590.48C890.227 591.62 890.777 593.26 890.777 595.4V601.79C890.777 602.13 890.857 602.39 891.017 602.57C891.177 602.73 891.427 602.81 891.767 602.81H892.397V605H891.347H891.197C890.637 604.98 890.147 604.9 889.727 604.76C889.307 604.6 888.967 604.34 888.707 603.98C888.447 603.6 888.327 603.11 888.347 602.51C887.967 603.31 887.337 603.99 886.457 604.55C885.577 605.09 884.537 605.36 883.337 605.36C881.697 605.36 880.337 604.95 879.257 604.13C878.177 603.31 877.637 602.22 877.637 600.86C877.637 599.82 877.877 598.99 878.357 598.37C878.837 597.75 879.497 597.28 880.337 596.96C881.177 596.62 882.267 596.32 883.607 596.06L888.287 595.16C888.287 593.78 887.957 592.76 887.297 592.1C886.657 591.42 885.687 591.08 884.387 591.08C883.387 591.08 882.547 591.33 881.867 591.83C881.207 592.33 880.757 593.05 880.517 593.99L877.907 593.78ZM880.217 600.86C880.217 601.54 880.507 602.1 881.087 602.54C881.687 602.98 882.547 603.19 883.667 603.17C884.567 603.17 885.367 602.96 886.067 602.54C886.787 602.12 887.347 601.5 887.747 600.68C888.167 599.84 888.377 598.82 888.377 597.62L888.347 597.35L884.567 598.01L883.967 598.1C883.087 598.26 882.397 598.42 881.897 598.58C881.397 598.72 880.987 598.97 880.667 599.33C880.367 599.69 880.217 600.2 880.217 600.86ZM905.85 594.41C905.69 593.39 905.23 592.58 904.47 591.98C903.71 591.38 902.83 591.08 901.83 591.08C900.35 591.08 899.2 591.61 898.38 592.67C897.56 593.71 897.15 595.17 897.15 597.05C897.15 598.93 897.56 600.4 898.38 601.46C899.2 602.5 900.35 603.02 901.83 603.02C902.87 603.02 903.77 602.7 904.53 602.06C905.31 601.4 905.79 600.51 905.97 599.39L908.58 599.54C908.42 600.72 908.02 601.75 907.38 602.63C906.74 603.51 905.93 604.19 904.95 604.67C903.99 605.13 902.95 605.36 901.83 605.36C900.37 605.36 899.09 605.02 897.99 604.34C896.91 603.66 896.07 602.7 895.47 601.46C894.87 600.2 894.57 598.73 894.57 597.05C894.57 595.37 894.87 593.91 895.47 592.67C896.07 591.41 896.91 590.44 897.99 589.76C899.09 589.08 900.37 588.74 901.83 588.74C902.91 588.74 903.93 588.97 904.89 589.43C905.85 589.87 906.64 590.51 907.26 591.35C907.9 592.19 908.29 593.16 908.43 594.26L905.85 594.41ZM915.405 585.5V600.8C915.405 601.48 915.565 601.99 915.885 602.33C916.225 602.65 916.705 602.81 917.325 602.81H919.605V605H917.325C915.925 605 914.845 604.64 914.085 603.92C913.325 603.18 912.945 602.14 912.945 600.8V585.5H915.405ZM919.635 589.1V591.29H910.605V589.1H919.635Z" fill="#808080"/>
<defs>
<linearGradient id="paint0_linear_42_72" x1="689.5" y1="179" x2="844" y2="391.5" gradientUnits="userSpaceOnUse">
<stop stop-color="white" stop-opacity="0.4"/>
<stop offset="1" stop-color="white" stop-opacity="0.1"/>
</linearGradient>
<linearGradient id="paint1_linear_42_72" x1="690.5" y1="177.5" x2="925" y2="412" gradientUnits="userSpaceOnUse">
<stop stop-color="white"/>
<stop offset="1" stop-color="#B9B9B9" stop-opacity="0"/>
</linearGradient>
<clipPath id="clip0_42_72">
<rect width="250" height="250" fill="white" transform="translate(675 162)"/>
</clipPath>
<clipPath id="clip1_42_72">
<rect x="691" y="191" width="217" height="192" fill="white"/>
</clipPath>
</defs>
</svg>
