<svg width="250" height="250" viewBox="0 0 250 250" fill="none" xmlns="http://www.w3.org/2000/svg">
<g clip-path="url(#clip0_42_126)">
<path d="M0 80C0 51.9974 0 37.9961 5.44967 27.3005C10.2433 17.8924 17.8924 10.2433 27.3005 5.44967C37.9961 0 51.9974 0 80 0H170C198.003 0 212.004 0 222.7 5.44967C232.108 10.2433 239.757 17.8924 244.55 27.3005C250 37.9961 250 51.9974 250 80V170C250 198.003 250 212.004 244.55 222.7C239.757 232.108 232.108 239.757 222.7 244.55C212.004 250 198.003 250 170 250H80C51.9974 250 37.9961 250 27.3005 244.55C17.8924 239.757 10.2433 232.108 5.44967 222.7C0 212.004 0 198.003 0 170V80Z" fill="url(#paint0_linear_42_126)" fill-opacity="0.8" stroke="url(#paint1_linear_42_126)"/>
<g clip-path="url(#clip1_42_126)">
<path d="M124.5 164.407C181.817 164.407 228.283 146.764 228.283 125C228.283 103.236 181.817 85.5932 124.5 85.5932C67.1823 85.5932 20.7173 103.236 20.7173 125C20.7173 146.764 67.1823 164.407 124.5 164.407Z" fill="#2C5E8C"/>
<path d="M90.1827 144.703C118.841 194.067 157.438 225.263 176.391 214.381C195.344 203.499 187.476 154.66 158.817 105.297C130.158 55.9329 91.5615 24.7371 72.6086 35.619C53.6557 46.5009 61.5239 95.3396 90.1827 144.703Z" fill="#2C5E8C"/>
<path d="M90.1828 105.297C61.524 154.66 53.6558 203.499 72.6087 214.381C91.5616 225.263 130.158 194.067 158.817 144.703C187.476 95.3396 195.344 46.5009 176.391 35.619C157.438 24.7371 118.842 55.9329 90.1828 105.297Z" fill="#2C5E8C"/>
<ellipse cx="125.345" cy="125" rx="41.7957" ry="41.2632" fill="#F72C5B"/>
<path d="M124.5 164.407C181.817 164.407 228.282 146.764 228.282 125C228.282 103.236 181.817 85.5932 124.5 85.5932C67.1823 85.5932 20.7173 103.236 20.7173 125C20.7173 146.764 67.1823 164.407 124.5 164.407Z" stroke="black" stroke-width="8"/>
<path d="M90.1827 144.703C118.841 194.067 157.438 225.263 176.391 214.381C195.344 203.499 187.476 154.66 158.817 105.297C130.158 55.9329 91.5614 24.7372 72.6086 35.619C53.6557 46.5009 61.5239 95.3397 90.1827 144.703Z" stroke="black" stroke-width="8"/>
<path d="M90.1828 105.297C61.524 154.66 53.6558 203.499 72.6087 214.381C91.5615 225.263 130.158 194.067 158.817 144.703C187.476 95.3396 195.344 46.5009 176.391 35.619C157.438 24.7372 118.842 55.9329 90.1828 105.297Z" stroke="black" stroke-width="8"/>
<path d="M118.611 104.791C125.652 104.715 132.635 108.229 136.053 114.808C138.973 120.424 138.874 125.754 135.738 131.924C134.206 134.941 134.174 135.138 134.964 136.708C135.652 138.079 137.3 139.07 138.886 139.07C140.345 139.07 142.581 137.293 142.908 135.874C143.229 134.498 142.288 132.485 140.958 131.699C140.531 131.451 140.11 131.193 139.696 130.926C139.282 130.623 141.045 129.774 142.076 129.774C144.283 129.774 146.082 131.369 146.493 133.685C146.67 134.695 146.923 134.965 147.906 135.207C150.666 135.88 152.073 139.607 150.332 141.623C149.625 142.442 149.593 142.445 149.352 141.75C148.494 139.322 147.213 138.355 144.845 138.355C143.82 138.355 143.008 138.743 141.318 140.04C138.087 142.527 135.324 143.991 131.98 144.989C127.881 146.153 123.14 146.438 118.855 145.462C111.91 144.155 105.261 139.064 101.984 132.554C97.8919 124.423 99.1029 115.988 105.2 110.157C106.952 108.475 109.039 107.136 111.34 106.215C113.641 105.294 116.112 104.81 118.611 104.791Z" fill="white"/>
</g>
</g>
<defs>
<linearGradient id="paint0_linear_42_126" x1="14.5" y1="17" x2="169" y2="229.5" gradientUnits="userSpaceOnUse">
<stop stop-color="white" stop-opacity="0.4"/>
<stop offset="1" stop-color="white" stop-opacity="0.1"/>
</linearGradient>
<linearGradient id="paint1_linear_42_126" x1="15.5" y1="15.5" x2="250" y2="250" gradientUnits="userSpaceOnUse">
<stop stop-color="white"/>
<stop offset="1" stop-color="#B9B9B9" stop-opacity="0"/>
</linearGradient>
<clipPath id="clip0_42_126">
<rect width="250" height="250" fill="white"/>
</clipPath>
<clipPath id="clip1_42_126">
<rect x="16" y="29" width="217" height="192" fill="white"/>
</clipPath>
</defs>
</svg>
